<svg
						class="logo"
						width="278"
						height="121"
						viewBox="0 0 278 121"
						fill="none"
						xmlns="http://www.w3.org/2000/svg"
					>
						<path
							class="seven single-letter"
							style="--order: 7"
							d="M259.04 85.023C257.8 85.023 256.653 84.62 255.599 83.814C254.607 83.008 254.018 82.233 253.832 81.489C253.646 80.621 254.793 77.521 257.273 72.189L255.134 75.258C254.204 76.622 253.274 77.831 252.344 78.885C251.414 79.939 250.546 80.869 249.74 81.675C247.384 83.907 245.4 84.837 243.788 84.465C240.068 83.597 238.208 81.489 238.208 78.141C238.208 75.475 239.479 72.065 242.021 67.911C242.827 66.671 243.85 65.431 245.09 64.191C246.33 62.951 247.756 61.742 249.368 60.564C253.522 57.526 257.521 56.007 261.365 56.007C263.721 56.007 265.953 56.627 268.061 57.867C268.743 58.363 269.084 58.89 269.084 59.448C269.084 59.882 268.96 60.099 268.712 60.099C268.65 60.099 268.588 60.068 268.526 60.006C267.224 58.58 265.488 57.867 263.318 57.867C260.776 57.867 258.017 58.828 255.041 60.75C252.065 62.672 249.399 65.245 247.043 68.469C243.695 73.119 242.021 76.901 242.021 79.815C242.021 81.489 242.61 82.543 243.788 82.977C245.276 83.597 248.438 80.838 253.274 74.7C255.258 72.282 256.901 70.112 258.203 68.19C259.567 66.268 260.652 64.625 261.458 63.261C261.83 62.579 262.512 62.238 263.504 62.238C265.364 62.238 266.294 62.796 266.294 63.912C266.294 64.098 266.263 64.222 266.201 64.284C260.807 72.84 258.11 78.637 258.11 81.675C258.11 82.419 258.327 82.822 258.761 82.884C260.063 83.256 262.233 82.295 265.271 80.001C268.929 77.273 272.37 73.646 275.594 69.12C276.276 68.19 276.896 67.725 277.454 67.725C277.64 67.725 277.733 67.787 277.733 67.911C277.733 68.221 277.454 68.81 276.896 69.678C275.594 71.724 274.137 73.646 272.525 75.444C270.975 77.242 269.239 78.916 267.317 80.466C264.589 82.76 262.357 84.186 260.621 84.744C260.187 84.93 259.66 85.023 259.04 85.023Z"
							fill="white"
						/>
						<path
							class="six single-letter"
							style="--order: 6"
							d="M223.11 84.93C221.746 85.054 220.444 84.713 219.204 83.907C217.964 83.039 217.344 82.078 217.344 81.024C217.344 79.102 219.173 75.413 222.831 69.957C226.861 63.943 228.876 60.471 228.876 59.541C228.876 58.983 228.597 58.673 228.039 58.611C226.241 58.735 223.451 60.533 219.669 64.005C214.275 69.027 209.222 75.847 204.51 84.465C204.386 84.589 204.045 84.651 203.487 84.651C200.821 84.651 199.612 84.279 199.86 83.535C200.542 81.737 201.72 79.04 203.394 75.444C205.13 71.848 207.362 67.322 210.09 61.866C211.95 58.208 213.841 56.379 215.763 56.379C216.383 56.379 216.786 56.534 216.972 56.844C217.096 57.03 215.794 59.696 213.066 64.842C211.764 67.322 210.741 69.306 209.997 70.794C209.253 72.22 208.726 73.15 208.416 73.584C209.47 72.53 210.71 71.228 212.136 69.678C213.624 68.128 215.329 66.33 217.251 64.284C220.289 60.874 223.637 58.332 227.295 56.658C228.163 56.286 229.155 56.1 230.271 56.1C232.813 56.1 234.084 57.03 234.084 58.89C234.084 60.068 233.495 61.463 232.317 63.075C225.621 72.437 222.273 78.73 222.273 81.954C222.273 82.636 222.49 83.07 222.924 83.256C223.916 83.69 226.365 82.667 230.271 80.187C234.859 77.211 238.765 73.522 241.989 69.12C242.671 68.19 243.291 67.725 243.849 67.725C244.035 67.725 244.128 67.787 244.128 67.911C244.128 68.221 243.849 68.81 243.291 69.678C240.563 73.956 236.781 77.738 231.945 81.024C227.605 83.876 224.66 85.178 223.11 84.93Z"
							fill="white"
						/>
						<path
							class="five single-letter"
							style="--order: 5"
							d="M191.04 85.023C189.8 85.023 188.653 84.62 187.599 83.814C186.607 83.008 186.018 82.233 185.832 81.489C185.646 80.621 186.793 77.521 189.273 72.189L187.134 75.258C186.204 76.622 185.274 77.831 184.344 78.885C183.414 79.939 182.546 80.869 181.74 81.675C179.384 83.907 177.4 84.837 175.788 84.465C172.068 83.597 170.208 81.489 170.208 78.141C170.208 75.475 171.479 72.065 174.021 67.911C174.827 66.671 175.85 65.431 177.09 64.191C178.33 62.951 179.756 61.742 181.368 60.564C185.522 57.526 189.521 56.007 193.365 56.007C195.721 56.007 197.953 56.627 200.061 57.867C200.743 58.363 201.084 58.89 201.084 59.448C201.084 59.882 200.96 60.099 200.712 60.099C200.65 60.099 200.588 60.068 200.526 60.006C199.224 58.58 197.488 57.867 195.318 57.867C192.776 57.867 190.017 58.828 187.041 60.75C184.065 62.672 181.399 65.245 179.043 68.469C175.695 73.119 174.021 76.901 174.021 79.815C174.021 81.489 174.61 82.543 175.788 82.977C177.276 83.597 180.438 80.838 185.274 74.7C187.258 72.282 188.901 70.112 190.203 68.19C191.567 66.268 192.652 64.625 193.458 63.261C193.83 62.579 194.512 62.238 195.504 62.238C197.364 62.238 198.294 62.796 198.294 63.912C198.294 64.098 198.263 64.222 198.201 64.284C192.807 72.84 190.11 78.637 190.11 81.675C190.11 82.419 190.327 82.822 190.761 82.884C192.063 83.256 194.233 82.295 197.271 80.001C200.929 77.273 204.37 73.646 207.594 69.12C208.276 68.19 208.896 67.725 209.454 67.725C209.64 67.725 209.733 67.787 209.733 67.911C209.733 68.221 209.454 68.81 208.896 69.678C207.594 71.724 206.137 73.646 204.525 75.444C202.975 77.242 201.239 78.916 199.317 80.466C196.589 82.76 194.357 84.186 192.621 84.744C192.187 84.93 191.66 85.023 191.04 85.023Z"
							fill="white"
						/>
						<path
							class="four single-letter"
							style="--order: 4"
							d="M132.837 112.644C130.481 112.644 129.303 111.466 129.303 109.11C129.303 107.188 130.14 104.894 131.814 102.228C132.868 100.554 134.201 98.756 135.813 96.834C137.487 94.974 139.471 92.99 141.765 90.882C145.857 86.914 150.197 83.473 154.785 80.559C155.839 77.955 156.738 75.475 157.482 73.119C158.288 70.763 158.97 68.562 159.528 66.516C159.094 67.26 156.707 70.174 152.367 75.258C147.097 81.458 143.47 84.558 141.486 84.558C141.238 84.558 141.052 84.527 140.928 84.465L138.138 82.977C137.27 82.481 136.743 82.016 136.557 81.582C136.371 81.086 136.278 80.59 136.278 80.094C136.278 78.42 136.774 76.033 137.766 72.933C138.758 69.833 140.308 66.051 142.416 61.587C143.346 59.603 144.4 58.611 145.578 58.611C146.446 58.611 147.283 59.262 148.089 60.564L143.997 68.655C141.083 74.359 139.626 78.327 139.626 80.559C139.626 82.047 140.122 82.791 141.114 82.791C143.098 82.791 146.818 79.412 152.274 72.654C154.072 70.484 155.715 68.407 157.203 66.423C158.753 64.377 160.148 62.393 161.388 60.471C161.822 59.851 162.442 59.541 163.248 59.541C164.736 59.541 165.48 60.099 165.48 61.215C165.48 61.463 165.387 61.742 165.201 62.052C164.705 63.788 164.023 65.927 163.155 68.469C162.349 70.949 161.357 73.894 160.179 77.304C162.163 76.126 163.744 75.537 164.922 75.537C165.418 75.537 165.666 75.661 165.666 75.909C165.666 76.529 164.891 77.118 163.341 77.676C162.721 77.924 162.039 78.203 161.295 78.513C160.613 78.823 159.869 79.195 159.063 79.629C154.723 90.417 149.484 99.314 143.346 106.32C139.626 110.536 136.123 112.644 132.837 112.644ZM134.79 110.691C135.968 110.691 137.394 109.73 139.068 107.808C144.586 101.608 149.422 93.486 153.576 83.442C145.33 89.58 139.192 95.966 135.162 102.6C133.798 104.77 133.116 106.692 133.116 108.366C133.116 109.916 133.674 110.691 134.79 110.691Z"
							fill="white"
						/>
						<path
							class="three single-letter"
							style="--order: 3"
							d="M113.974 85.116C113.602 85.24 112.083 84.434 109.417 82.698C109.107 82.388 108.952 81.799 108.952 80.931C108.952 76.839 110.719 70.019 114.253 60.471C115.121 58.053 116.299 56.844 117.787 56.844C118.531 56.844 119.182 57.185 119.74 57.867C120.36 58.487 120.577 58.983 120.391 59.355C119.709 60.781 118.965 62.424 118.159 64.284C117.415 66.082 116.609 68.097 115.741 70.329C113.633 75.723 112.579 79.443 112.579 81.489C112.579 82.357 112.858 82.791 113.416 82.791C113.664 82.791 113.912 82.698 114.16 82.512C115.152 81.892 116.609 80.59 118.531 78.606C120.453 76.622 122.84 73.987 125.692 70.701C131.892 63.571 135.891 58.239 137.689 54.705C138.557 53.093 139.456 52.287 140.386 52.287C141.192 52.287 141.595 52.783 141.595 53.775C141.595 54.705 141.099 55.759 140.107 56.937C137.813 59.665 135.333 62.548 132.667 65.586C130.063 68.562 127.304 71.693 124.39 74.979C117.88 81.985 114.408 85.364 113.974 85.116Z"
							fill="white"
						/>
						<path
							class="two single-letter"
							style="--order: 2"
							d="M90.416 84.744C88.618 84.744 87.037 84.31 85.673 83.442C83.875 82.202 82.976 80.404 82.976 78.048C82.976 75.506 84.061 72.406 86.231 68.748C89.145 63.974 93.423 59.789 99.065 56.193C100.491 55.263 101.917 54.798 103.343 54.798C105.203 54.798 106.536 55.387 107.342 56.565C107.838 57.247 108.086 58.022 108.086 58.89C108.086 61.494 105.978 64.346 101.762 67.446C100.522 68.314 99.189 69.12 97.763 69.864C96.399 70.546 94.911 71.042 93.299 71.352L89.3 72.189C87.812 74.855 87.068 77.087 87.068 78.885C87.068 81.365 88.525 82.605 91.439 82.605C93.733 82.605 96.523 81.644 99.809 79.722C104.211 77.18 107.993 73.646 111.155 69.12C111.651 68.376 112.116 68.004 112.55 68.004C112.736 68.004 112.829 68.128 112.829 68.376C112.829 68.686 112.612 69.151 112.178 69.771C106.164 78.823 99.375 83.783 91.811 84.651C91.563 84.713 91.315 84.744 91.067 84.744C90.881 84.744 90.664 84.744 90.416 84.744ZM90.416 70.608C92.152 70.608 94.384 69.833 97.112 68.283C100.956 66.113 103.653 63.323 105.203 59.913C105.637 59.045 105.854 58.332 105.854 57.774C105.854 57.216 105.637 56.937 105.203 56.937C104.397 56.937 102.754 57.929 100.274 59.913C98.476 61.463 96.709 63.137 94.973 64.935C93.299 66.671 91.687 68.531 90.137 70.515C90.075 70.577 90.168 70.608 90.416 70.608Z"
							fill="white"
						/>
						<path
							class="one first-letter"
							style="--order: 1"
							d="M75.144 97.392C74.4 97.392 73.811 97.268 73.377 97.02C70.835 95.718 69.564 92.99 69.564 88.836C69.564 83.38 71.455 75.258 75.237 64.47C76.849 60.068 78.43 55.635 79.98 51.171C81.592 46.707 83.204 42.243 84.816 37.779C84.878 37.531 84.909 37.314 84.909 37.128C84.971 36.942 85.002 36.756 85.002 36.57C85.002 35.268 84.351 34.617 83.049 34.617C81.623 34.617 79.577 35.299 76.911 36.663C71.021 39.577 64.635 44.692 57.753 52.008C49.259 60.998 41.726 71.724 35.154 84.186C35.278 84.496 35.65 84.775 36.27 85.023C36.89 85.333 37.045 85.612 36.735 85.86C36.735 86.666 35.433 87.069 32.829 87.069C30.535 87.069 29.388 86.728 29.388 86.046C29.388 84.248 30.07 81.458 31.434 77.676C32.798 73.832 34.937 68.996 37.851 63.168L46.686 45.498C48.484 42.026 49.755 39.019 50.499 36.477C51.305 33.935 51.708 31.92 51.708 30.432C51.708 27.146 48.98 25.503 43.524 25.503C38.75 25.503 32.023 27.549 23.343 31.641C18.445 33.997 14.198 37.159 10.602 41.127C6.634 45.343 4.65 49.249 4.65 52.845C4.65 55.139 5.549 57.061 7.347 58.611C9.207 60.099 11.532 60.843 14.322 60.843C15.376 60.843 16.399 60.75 17.391 60.564L18.693 60.378C14.911 61.804 12.276 62.517 10.788 62.517C8.928 62.517 7.161 62.207 5.487 61.587C2.263 60.409 0.651 57.96 0.651 54.24C0.651 51.388 1.519 48.505 3.255 45.591C4.743 42.987 7.533 40.042 11.625 36.756C15.903 33.222 20.553 30.339 25.575 28.107C31.837 25.255 37.913 23.829 43.803 23.829C49.693 23.829 53.754 25.658 55.986 29.316C56.11 29.688 56.172 30.06 56.172 30.432C56.172 31.858 55.49 34.4 54.126 38.058C52.762 41.654 50.654 46.397 47.802 52.287L36.084 76.467C36.208 76.653 39.37 72.003 45.57 62.517C48.794 57.619 54.653 51.512 63.147 44.196C71.331 37.128 77.004 33.16 80.166 32.292C80.972 32.044 81.902 31.92 82.956 31.92C85.188 31.92 87.079 32.571 88.629 33.873C90.241 35.113 91.047 36.415 91.047 37.779C91.047 38.275 90.923 38.678 90.675 38.988C86.025 46.056 82.119 54.798 78.957 65.214C77.531 69.926 76.446 74.266 75.702 78.234C75.02 82.14 74.679 85.643 74.679 88.743C74.679 93.455 75.64 95.687 77.562 95.439C78.182 95.191 78.957 94.912 79.887 94.602C80.817 94.354 81.933 94.013 83.235 93.579C83.421 93.517 83.669 93.486 83.979 93.486C84.909 93.486 84.103 94.137 81.561 95.439C79.081 96.741 76.942 97.392 75.144 97.392Z"
							fill="white"
						/>
						<path
							class="webcodeby"
							d="M144.555 37.366L148.856 26.372H149.523L153.272 37.435L153.824 39.298C153.87 39.0067 154.062 38.3933 154.399 37.458L158.217 26.073H159.321L154.123 41.092H153.502C150.941 33.7473 149.615 29.9293 149.523 29.638C149.385 29.224 149.247 28.8177 149.109 28.419C149.032 28.6797 148.825 29.224 148.488 30.052L144.141 41.092H143.52L138.276 26.073H139.449L143.244 37.274C143.459 37.8873 143.658 38.5697 143.842 39.321C143.919 39.0143 144.156 38.3627 144.555 37.366ZM162.367 41V26.073H169.336V26.993H163.425V32.421H168.761V33.318H163.425V40.034H169.566V41H162.367ZM173.777 26.142C174.866 26.05 175.985 26.004 177.135 26.004C178.285 26.004 179.266 26.28 180.079 26.832C180.907 27.384 181.321 28.189 181.321 29.247C181.321 30.0443 181.106 30.7803 180.677 31.455C180.248 32.1297 179.726 32.6433 179.113 32.996C180.11 33.2873 180.938 33.8087 181.597 34.56C182.256 35.3113 182.586 36.1623 182.586 37.113C182.586 38.4317 182.164 39.4283 181.321 40.103C180.493 40.7777 179.32 41.115 177.802 41.115C176.284 41.115 174.942 41.0613 173.777 40.954V26.142ZM175.87 33.456L174.835 33.479V40.08C175.494 40.1413 176.56 40.172 178.032 40.172C179.029 40.172 179.849 39.896 180.493 39.344C181.152 38.7767 181.482 38.0713 181.482 37.228C181.482 36.3693 181.152 35.6257 180.493 34.997C179.849 34.353 179.006 33.9007 177.963 33.64C177.426 33.5173 176.729 33.456 175.87 33.456ZM180.286 29.224C180.286 28.4727 179.972 27.8977 179.343 27.499C178.714 27.085 177.963 26.878 177.089 26.878C176.215 26.878 175.464 26.901 174.835 26.947V32.582C176.169 32.582 177.235 32.6203 178.032 32.697C178.63 32.375 179.151 31.9073 179.596 31.294C180.056 30.6653 180.286 29.9753 180.286 29.224ZM198.577 40.264C197.427 40.908 195.825 41.23 193.77 41.23C191.731 41.23 189.929 40.494 188.365 39.022C186.816 37.55 186.042 35.7253 186.042 33.548C186.042 31.3553 186.717 29.523 188.066 28.051C189.431 26.579 191.186 25.843 193.333 25.843C195.066 25.843 196.76 26.1113 198.416 26.648L198.14 27.522C196.545 27.0313 194.897 26.786 193.195 26.786C191.493 26.786 190.059 27.4377 188.894 28.741C187.744 30.029 187.169 31.616 187.169 33.502C187.169 35.3727 187.836 36.9673 189.17 38.286C190.519 39.6047 192.076 40.264 193.839 40.264C195.602 40.264 197.067 40.0187 198.232 39.528L198.577 40.264ZM208.724 41.23C206.593 41.23 204.807 40.4863 203.365 38.999C201.924 37.5117 201.203 35.6947 201.203 33.548C201.203 31.386 201.924 29.5613 203.365 28.074C204.807 26.5867 206.593 25.843 208.724 25.843C210.856 25.843 212.642 26.5867 214.083 28.074C215.525 29.5613 216.245 31.386 216.245 33.548C216.245 35.6947 215.525 37.5117 214.083 38.999C212.642 40.4863 210.856 41.23 208.724 41.23ZM208.724 26.786C206.884 26.786 205.351 27.4377 204.124 28.741C202.913 30.0443 202.307 31.6467 202.307 33.548C202.307 35.434 202.913 37.0287 204.124 38.332C205.351 39.62 206.884 40.264 208.724 40.264C210.58 40.264 212.113 39.62 213.324 38.332C214.536 37.0287 215.141 35.434 215.141 33.548C215.141 31.6467 214.536 30.0443 213.324 28.741C212.113 27.4377 210.58 26.786 208.724 26.786ZM225.64 40.218C227.602 40.218 229.174 39.689 230.355 38.631C231.551 37.573 232.149 35.9783 232.149 33.847C232.149 31.7157 231.474 30.0213 230.125 28.764C228.791 27.5067 227.142 26.878 225.18 26.878C223.784 26.878 222.711 26.9087 221.96 26.97V40.057C222.88 40.1643 224.106 40.218 225.64 40.218ZM225.18 25.935C227.48 25.935 229.396 26.648 230.93 28.074C232.478 29.4847 233.253 31.409 233.253 33.847C233.253 36.285 232.54 38.1173 231.114 39.344C229.703 40.5707 227.878 41.184 225.64 41.184C224.091 41.184 222.496 41.1073 220.856 40.954V26.073C222.082 25.981 223.524 25.935 225.18 25.935ZM237.859 41V26.073H244.828V26.993H238.917V32.421H244.253V33.318H238.917V40.034H245.058V41H237.859ZM249.268 26.142C250.357 26.05 251.476 26.004 252.626 26.004C253.776 26.004 254.758 26.28 255.57 26.832C256.398 27.384 256.812 28.189 256.812 29.247C256.812 30.0443 256.598 30.7803 256.168 31.455C255.739 32.1297 255.218 32.6433 254.604 32.996C255.601 33.2873 256.429 33.8087 257.088 34.56C257.748 35.3113 258.077 36.1623 258.077 37.113C258.077 38.4317 257.656 39.4283 256.812 40.103C255.984 40.7777 254.811 41.115 253.293 41.115C251.775 41.115 250.434 41.0613 249.268 40.954V26.142ZM251.361 33.456L250.326 33.479V40.08C250.986 40.1413 252.051 40.172 253.523 40.172C254.52 40.172 255.34 39.896 255.984 39.344C256.644 38.7767 256.973 38.0713 256.973 37.228C256.973 36.3693 256.644 35.6257 255.984 34.997C255.34 34.353 254.497 33.9007 253.454 33.64C252.918 33.5173 252.22 33.456 251.361 33.456ZM255.777 29.224C255.777 28.4727 255.463 27.8977 254.834 27.499C254.206 27.085 253.454 26.878 252.58 26.878C251.706 26.878 250.955 26.901 250.326 26.947V32.582C251.66 32.582 252.726 32.6203 253.523 32.697C254.121 32.375 254.643 31.9073 255.087 31.294C255.547 30.6653 255.777 29.9753 255.777 29.224ZM265.718 41H264.683V35.664L259.048 26.073H260.313L264.66 33.479C264.998 34.1537 265.189 34.514 265.235 34.56C265.327 34.3607 265.519 34.008 265.81 33.502L270.157 26.073H271.353L265.718 35.71V41Z"
							fill="white"
						/>
						<path class="webcodeby" 
							d="M144.555 37.366L144.926 37.5146L144.928 37.5117L144.555 37.366ZM148.856 26.372V25.972H148.583L148.483 26.2263L148.856 26.372ZM149.523 26.372L149.902 26.2436L149.81 25.972H149.523V26.372ZM153.272 37.435L153.656 37.3214L153.653 37.3139L153.651 37.3066L153.272 37.435ZM153.824 39.298L153.44 39.4116L154.219 39.3604L153.824 39.298ZM154.399 37.458L154.775 37.5937L154.778 37.5852L154.399 37.458ZM158.217 26.073V25.673H157.929L157.838 25.9458L158.217 26.073ZM159.321 26.073L159.699 26.2038L159.883 25.673H159.321V26.073ZM154.123 41.092V41.492H154.408L154.501 41.2228L154.123 41.092ZM153.502 41.092L153.124 41.2237L153.218 41.492H153.502V41.092ZM149.523 29.638L149.904 29.5175L149.902 29.5115L149.523 29.638ZM149.109 28.419L149.487 28.2882L149.078 27.1067L148.725 28.3061L149.109 28.419ZM148.488 30.052L148.118 29.9011L148.116 29.9055L148.488 30.052ZM144.141 41.092V41.492H144.413L144.513 41.2385L144.141 41.092ZM143.52 41.092L143.142 41.2239L143.236 41.492H143.52V41.092ZM138.276 26.073V25.673H137.713L137.898 26.2049L138.276 26.073ZM139.449 26.073L139.828 25.9446L139.736 25.673H139.449V26.073ZM143.244 37.274L142.865 37.4024L142.866 37.4061L143.244 37.274ZM143.842 39.321L143.453 39.4161L144.23 39.418L143.842 39.321ZM144.928 37.5117L149.229 26.5177L148.483 26.2263L144.182 37.2203L144.928 37.5117ZM148.856 26.772H149.523V25.972H148.856V26.772ZM149.144 26.5004L152.893 37.5634L153.651 37.3066L149.902 26.2436L149.144 26.5004ZM152.888 37.5486L153.44 39.4116L154.208 39.1844L153.656 37.3214L152.888 37.5486ZM154.219 39.3604C154.258 39.1139 154.435 38.5382 154.775 37.5937L154.023 37.3223C153.689 38.2484 153.482 38.8994 153.429 39.2356L154.219 39.3604ZM154.778 37.5852L158.596 26.2002L157.838 25.9458L154.02 37.3308L154.778 37.5852ZM158.217 26.473H159.321V25.673H158.217V26.473ZM158.943 25.9422L153.745 40.9612L154.501 41.2228L159.699 26.2038L158.943 25.9422ZM154.123 40.692H153.502V41.492H154.123V40.692ZM153.88 40.9603C151.317 33.6093 149.994 29.8014 149.904 29.5175L149.142 29.7585C149.236 30.0573 150.566 33.8854 153.124 41.2237L153.88 40.9603ZM149.902 29.5115C149.764 29.0961 149.626 28.6883 149.487 28.2882L148.731 28.5498C148.868 28.947 149.006 29.3519 149.144 29.7645L149.902 29.5115ZM148.725 28.3061C148.655 28.5438 148.457 29.0687 148.118 29.9011L148.858 30.2029C149.194 29.3793 149.409 28.8155 149.493 28.5319L148.725 28.3061ZM148.116 29.9055L143.769 40.9455L144.513 41.2385L148.86 30.1985L148.116 29.9055ZM144.141 40.692H143.52V41.492H144.141V40.692ZM143.898 40.9601L138.654 25.9411L137.898 26.2049L143.142 41.2239L143.898 40.9601ZM138.276 26.473H139.449V25.673H138.276V26.473ZM139.07 26.2014L142.865 37.4024L143.623 37.1456L139.828 25.9446L139.07 26.2014ZM142.866 37.4061C143.076 38.0053 143.272 38.675 143.453 39.4161L144.231 39.2259C144.044 38.4643 143.841 37.7694 143.622 37.1419L142.866 37.4061ZM144.23 39.418C144.299 39.1428 144.525 38.5178 144.926 37.5146L144.184 37.2174C143.788 38.2076 143.538 38.8858 143.454 39.224L144.23 39.418ZM162.367 41H161.967V41.4H162.367V41ZM162.367 26.073V25.673H161.967V26.073H162.367ZM169.336 26.073H169.736V25.673H169.336V26.073ZM169.336 26.993V27.393H169.736V26.993H169.336ZM163.425 26.993V26.593H163.025V26.993H163.425ZM163.425 32.421H163.025V32.821H163.425V32.421ZM168.761 32.421H169.161V32.021H168.761V32.421ZM168.761 33.318V33.718H169.161V33.318H168.761ZM163.425 33.318V32.918H163.025V33.318H163.425ZM163.425 40.034H163.025V40.434H163.425V40.034ZM169.566 40.034H169.966V39.634H169.566V40.034ZM169.566 41V41.4H169.966V41H169.566ZM162.767 41V26.073H161.967V41H162.767ZM162.367 26.473H169.336V25.673H162.367V26.473ZM168.936 26.073V26.993H169.736V26.073H168.936ZM169.336 26.593H163.425V27.393H169.336V26.593ZM163.025 26.993V32.421H163.825V26.993H163.025ZM163.425 32.821H168.761V32.021H163.425V32.821ZM168.361 32.421V33.318H169.161V32.421H168.361ZM168.761 32.918H163.425V33.718H168.761V32.918ZM163.025 33.318V40.034H163.825V33.318H163.025ZM163.425 40.434H169.566V39.634H163.425V40.434ZM169.166 40.034V41H169.966V40.034H169.166ZM169.566 40.6H162.367V41.4H169.566V40.6ZM173.777 26.142L173.743 25.7434L173.377 25.7744V26.142H173.777ZM180.079 26.832L179.854 27.1629L179.857 27.1648L180.079 26.832ZM179.113 32.996L178.914 32.6492L178.101 33.1168L179.001 33.3799L179.113 32.996ZM181.597 34.56L181.296 34.8238L181.296 34.8238L181.597 34.56ZM181.321 40.103L181.071 39.7906L181.068 39.7929L181.321 40.103ZM173.777 40.954H173.377V41.3189L173.74 41.3523L173.777 40.954ZM175.87 33.456V33.0559L175.861 33.0561L175.87 33.456ZM174.835 33.479L174.826 33.0791L174.435 33.0878V33.479H174.835ZM174.835 40.08H174.435V40.4445L174.798 40.4783L174.835 40.08ZM180.493 39.344L180.753 39.6477L180.754 39.6472L180.493 39.344ZM180.493 34.997L180.21 35.2799L180.217 35.2865L180.493 34.997ZM177.963 33.64L178.06 33.2519L178.052 33.2501L177.963 33.64ZM179.343 27.499L179.123 27.8331L179.129 27.8368L179.343 27.499ZM174.835 26.947L174.806 26.5481L174.435 26.5752V26.947H174.835ZM174.835 32.582H174.435V32.982H174.835V32.582ZM178.032 32.697L177.994 33.0952L178.115 33.1068L178.222 33.0492L178.032 32.697ZM179.596 31.294L179.273 31.0578L179.272 31.0592L179.596 31.294ZM173.811 26.5406C174.888 26.4496 175.996 26.404 177.135 26.404V25.604C175.974 25.604 174.844 25.6504 173.743 25.7434L173.811 26.5406ZM177.135 26.404C178.219 26.404 179.119 26.6632 179.854 27.1629L180.304 26.5011C179.414 25.8968 178.351 25.604 177.135 25.604V26.404ZM179.857 27.1648C180.566 27.6372 180.921 28.3127 180.921 29.247H181.721C181.721 28.0653 181.248 27.1308 180.301 26.4992L179.857 27.1648ZM180.921 29.247C180.921 29.968 180.728 30.6296 180.34 31.2402L181.015 31.6697C181.485 30.9311 181.721 30.1206 181.721 29.247H180.921ZM180.34 31.2402C179.94 31.8676 179.464 32.3328 178.914 32.6492L179.312 33.3428C179.989 32.9539 180.555 32.3917 181.015 31.6697L180.34 31.2402ZM179.001 33.3799C179.928 33.6508 180.689 34.1319 181.296 34.8238L181.898 34.2962C181.186 33.4854 180.292 32.9238 179.225 32.6121L179.001 33.3799ZM181.296 34.8238C181.895 35.5063 182.186 36.2647 182.186 37.113H182.986C182.986 36.0599 182.617 35.1164 181.898 34.2962L181.296 34.8238ZM182.186 37.113C182.186 38.3398 181.799 39.2087 181.071 39.7907L181.571 40.4153C182.53 39.648 182.986 38.5235 182.986 37.113H182.186ZM181.068 39.7929C180.336 40.3892 179.266 40.715 177.802 40.715V41.515C179.374 41.515 180.65 41.1661 181.574 40.4131L181.068 39.7929ZM177.802 40.715C176.293 40.715 174.964 40.6616 173.814 40.5557L173.74 41.3523C174.921 41.461 176.275 41.515 177.802 41.515V40.715ZM174.177 40.954V26.142H173.377V40.954H174.177ZM175.861 33.0561L174.826 33.0791L174.844 33.8789L175.879 33.8559L175.861 33.0561ZM174.435 33.479V40.08H175.235V33.479H174.435ZM174.798 40.4783C175.477 40.5415 176.559 40.572 178.032 40.572V39.772C176.561 39.772 175.512 39.7412 174.872 39.6817L174.798 40.4783ZM178.032 40.572C179.107 40.572 180.025 40.2724 180.753 39.6477L180.233 39.0403C179.674 39.5196 178.951 39.772 178.032 39.772V40.572ZM180.754 39.6472C181.498 39.0066 181.882 38.192 181.882 37.228H181.082C181.082 37.9507 180.806 38.5467 180.232 39.0408L180.754 39.6472ZM181.882 37.228C181.882 36.2527 181.502 35.4065 180.769 34.7075L180.217 35.2865C180.803 35.8448 181.082 36.486 181.082 37.228H181.882ZM180.776 34.7142C180.072 34.0103 179.16 33.527 178.06 33.2519L177.866 34.0281C178.851 34.2743 179.626 34.6957 180.21 35.2798L180.776 34.7142ZM178.052 33.2501C177.475 33.1181 176.744 33.056 175.87 33.056V33.856C176.713 33.856 177.378 33.9166 177.874 34.0299L178.052 33.2501ZM180.686 29.224C180.686 28.3372 180.303 27.6341 179.557 27.1612L179.129 27.8368C179.641 28.1613 179.886 28.6081 179.886 29.224H180.686ZM179.563 27.1649C178.859 26.7013 178.028 26.478 177.089 26.478V27.278C177.898 27.278 178.57 27.4687 179.123 27.8331L179.563 27.1649ZM177.089 26.478C176.209 26.478 175.447 26.5011 174.806 26.5481L174.864 27.3459C175.48 27.3009 176.221 27.278 177.089 27.278V26.478ZM174.435 26.947V32.582H175.235V26.947H174.435ZM174.835 32.982C176.163 32.982 177.215 33.0203 177.994 33.0952L178.07 32.2988C177.255 32.2204 176.175 32.182 174.835 32.182V32.982ZM178.222 33.0492C178.879 32.6955 179.444 32.1852 179.92 31.5288L179.272 31.0592C178.859 31.6295 178.382 32.0545 177.842 32.3448L178.222 33.0492ZM179.919 31.5302C180.427 30.8357 180.686 30.0635 180.686 29.224H179.886C179.886 29.8871 179.685 30.495 179.273 31.0578L179.919 31.5302ZM198.577 40.264L198.773 40.613L199.097 40.4312L198.939 40.0942L198.577 40.264ZM188.365 39.022L188.09 39.3119L188.091 39.3133L188.365 39.022ZM188.066 28.051L187.773 27.779L187.771 27.7807L188.066 28.051ZM198.416 26.648L198.798 26.7685L198.917 26.3899L198.539 26.2675L198.416 26.648ZM198.14 27.522L198.023 27.9043L198.402 28.0211L198.522 27.6425L198.14 27.522ZM188.894 28.741L188.596 28.4744L188.596 28.4746L188.894 28.741ZM189.17 38.286L188.889 38.5705L188.891 38.5721L189.17 38.286ZM198.232 39.528L198.594 39.3582L198.431 39.0102L198.077 39.1593L198.232 39.528ZM198.382 39.915C197.316 40.5119 195.791 40.83 193.77 40.83V41.63C195.858 41.63 197.539 41.3041 198.773 40.613L198.382 39.915ZM193.77 40.83C191.839 40.83 190.133 40.137 188.639 38.7307L188.091 39.3133C189.725 40.851 191.623 41.63 193.77 41.63V40.83ZM188.641 38.7321C187.173 37.3372 186.442 35.6181 186.442 33.548H185.642C185.642 35.8326 186.46 37.7628 188.09 39.3119L188.641 38.7321ZM186.442 33.548C186.442 31.4448 187.086 29.712 188.361 28.3213L187.771 27.7807C186.347 29.334 185.642 31.2659 185.642 33.548H186.442ZM188.359 28.3229C189.643 26.9387 191.289 26.243 193.333 26.243V25.443C191.084 25.443 189.219 26.2193 187.773 27.7791L188.359 28.3229ZM193.333 26.243C195.024 26.243 196.676 26.5047 198.293 27.0285L198.539 26.2675C196.844 25.718 195.108 25.443 193.333 25.443V26.243ZM198.035 26.5275L197.759 27.4015L198.522 27.6425L198.798 26.7685L198.035 26.5275ZM198.258 27.1397C196.624 26.6371 194.936 26.386 193.195 26.386V27.186C194.858 27.186 196.467 27.4256 198.023 27.9043L198.258 27.1397ZM193.195 26.386C191.376 26.386 189.835 27.0888 188.596 28.4744L189.192 29.0076C190.284 27.7865 191.61 27.186 193.195 27.186V26.386ZM188.596 28.4746C187.374 29.8429 186.769 31.5275 186.769 33.502H187.569C187.569 31.7045 188.114 30.2151 189.193 29.0074L188.596 28.4746ZM186.769 33.502C186.769 35.4799 187.479 37.1769 188.889 38.5705L189.451 38.0015C188.193 36.7578 187.569 35.2655 187.569 33.502H186.769ZM188.891 38.5721C190.309 39.9581 191.964 40.664 193.839 40.664V39.864C192.188 39.864 190.73 39.2512 189.45 37.9999L188.891 38.5721ZM193.839 40.664C195.636 40.664 197.158 40.4145 198.387 39.8967L198.077 39.1593C196.976 39.6229 195.569 39.864 193.839 39.864V40.664ZM197.87 39.6978L198.215 40.4338L198.939 40.0942L198.594 39.3582L197.87 39.6978ZM203.365 38.999L203.653 38.7206L203.365 38.999ZM203.365 28.074L203.653 28.3524L203.653 28.3524L203.365 28.074ZM214.083 28.074L214.371 27.7956L214.371 27.7956L214.083 28.074ZM214.083 38.999L214.371 39.2774L214.371 39.2774L214.083 38.999ZM204.124 28.741L203.833 28.4668L203.831 28.4687L204.124 28.741ZM204.124 38.332L203.831 38.6043L203.835 38.6079L204.124 38.332ZM213.324 38.332L213.616 38.606L213.617 38.6043L213.324 38.332ZM213.324 28.741L213.617 28.4687L213.617 28.4687L213.324 28.741ZM208.724 40.83C206.698 40.83 205.016 40.1277 203.653 38.7206L203.078 39.2774C204.597 40.845 206.488 41.63 208.724 41.63V40.83ZM203.653 38.7206C202.286 37.3109 201.603 35.595 201.603 33.548H200.803C200.803 35.7944 201.562 37.7124 203.078 39.2774L203.653 38.7206ZM201.603 33.548C201.603 31.4849 202.287 29.7615 203.653 28.3524L203.078 27.7956C201.561 29.3611 200.803 31.2871 200.803 33.548H201.603ZM203.653 28.3524C205.016 26.9453 206.698 26.243 208.724 26.243V25.443C206.488 25.443 204.597 26.228 203.078 27.7956L203.653 28.3524ZM208.724 26.243C210.751 26.243 212.432 26.9453 213.796 28.3524L214.371 27.7956C212.851 26.228 210.96 25.443 208.724 25.443V26.243ZM213.796 28.3524C215.162 29.7615 215.845 31.4849 215.845 33.548H216.645C216.645 31.2871 215.888 29.3611 214.371 27.7956L213.796 28.3524ZM215.845 33.548C215.845 35.595 215.162 37.3109 213.796 38.7206L214.371 39.2774C215.887 37.7124 216.645 35.7944 216.645 33.548H215.845ZM213.796 38.7206C212.432 40.1277 210.751 40.83 208.724 40.83V41.63C210.96 41.63 212.851 40.845 214.371 39.2774L213.796 38.7206ZM208.724 26.386C206.777 26.386 205.138 27.0807 203.833 28.4669L204.416 29.0151C205.564 27.7946 206.991 27.186 208.724 27.186V26.386ZM203.831 28.4687C202.546 29.8514 201.907 31.5532 201.907 33.548H202.707C202.707 31.7401 203.28 30.2373 204.417 29.0133L203.831 28.4687ZM201.907 33.548C201.907 35.5284 202.547 37.2222 203.831 38.6043L204.417 38.0597C203.279 36.8351 202.707 35.3396 202.707 33.548H201.907ZM203.835 38.6079C205.14 39.9782 206.779 40.664 208.724 40.664V39.864C206.99 39.864 205.562 39.2618 204.414 38.0561L203.835 38.6079ZM208.724 40.664C210.684 40.664 212.325 39.9788 213.616 38.606L213.033 38.058C211.901 39.2612 210.475 39.864 208.724 39.864V40.664ZM213.617 38.6043C214.902 37.2222 215.541 35.5284 215.541 33.548H214.741C214.741 35.3396 214.169 36.8351 213.031 38.0597L213.617 38.6043ZM215.541 33.548C215.541 31.5532 214.902 29.8514 213.617 28.4687L213.031 29.0133C214.169 30.2373 214.741 31.7401 214.741 33.548H215.541ZM213.617 28.4687C212.327 27.0801 210.685 26.386 208.724 26.386V27.186C210.474 27.186 211.899 27.7952 213.031 29.0133L213.617 28.4687ZM230.355 38.631L230.09 38.3314L230.088 38.3331L230.355 38.631ZM230.125 28.764L229.85 29.0551L229.852 29.0566L230.125 28.764ZM221.96 26.97L221.927 26.5713L221.56 26.6013V26.97H221.96ZM221.96 40.057H221.56V40.413L221.913 40.4543L221.96 40.057ZM230.93 28.074L230.657 28.3669L230.66 28.3697L230.93 28.074ZM231.114 39.344L230.853 39.0408L230.851 39.0422L231.114 39.344ZM220.856 40.954H220.456V41.3184L220.818 41.3523L220.856 40.954ZM220.856 26.073L220.826 25.6741L220.456 25.7019V26.073H220.856ZM225.64 40.618C227.676 40.618 229.351 40.0673 230.622 38.9289L230.088 38.3331C228.997 39.3107 227.528 39.818 225.64 39.818V40.618ZM230.62 38.9306C231.928 37.7735 232.549 36.0525 232.549 33.847H231.749C231.749 35.9041 231.174 37.3725 230.09 38.3314L230.62 38.9306ZM232.549 33.847C232.549 31.6236 231.841 29.8163 230.397 28.4714L229.852 29.0566C231.107 30.2263 231.749 31.8077 231.749 33.847H232.549ZM230.399 28.4729C228.985 27.1404 227.236 26.478 225.18 26.478V27.278C227.048 27.278 228.596 27.8729 229.85 29.0551L230.399 28.4729ZM225.18 26.478C223.781 26.478 222.695 26.5087 221.927 26.5713L221.992 27.3687C222.727 27.3087 223.788 27.278 225.18 27.278V26.478ZM221.56 26.97V40.057H222.36V26.97H221.56ZM221.913 40.4543C222.855 40.5642 224.099 40.618 225.64 40.618V39.818C224.113 39.818 222.904 39.7645 222.006 39.6597L221.913 40.4543ZM225.18 26.335C227.389 26.335 229.206 27.0168 230.657 28.3669L231.202 27.7811C229.587 26.2792 227.57 25.535 225.18 25.535V26.335ZM230.66 28.3697C232.112 29.692 232.853 31.5013 232.853 33.847H233.653C233.653 31.3167 232.845 29.2774 231.199 27.7783L230.66 28.3697ZM232.853 33.847C232.853 36.2054 232.166 37.9112 230.853 39.0408L231.375 39.6472C232.913 38.3234 233.653 36.3646 233.653 33.847H232.853ZM230.851 39.0422C229.527 40.1935 227.802 40.784 225.64 40.784V41.584C227.955 41.584 229.879 40.9478 231.376 39.6458L230.851 39.0422ZM225.64 40.784C224.104 40.784 222.522 40.708 220.893 40.5557L220.818 41.3523C222.471 41.5067 224.078 41.584 225.64 41.584V40.784ZM221.256 40.954V26.073H220.456V40.954H221.256ZM220.886 26.4719C222.1 26.3808 223.531 26.335 225.18 26.335V25.535C223.517 25.535 222.065 25.5812 220.826 25.6741L220.886 26.4719ZM237.859 41H237.459V41.4H237.859V41ZM237.859 26.073V25.673H237.459V26.073H237.859ZM244.828 26.073H245.228V25.673H244.828V26.073ZM244.828 26.993V27.393H245.228V26.993H244.828ZM238.917 26.993V26.593H238.517V26.993H238.917ZM238.917 32.421H238.517V32.821H238.917V32.421ZM244.253 32.421H244.653V32.021H244.253V32.421ZM244.253 33.318V33.718H244.653V33.318H244.253ZM238.917 33.318V32.918H238.517V33.318H238.917ZM238.917 40.034H238.517V40.434H238.917V40.034ZM245.058 40.034H245.458V39.634H245.058V40.034ZM245.058 41V41.4H245.458V41H245.058ZM238.259 41V26.073H237.459V41H238.259ZM237.859 26.473H244.828V25.673H237.859V26.473ZM244.428 26.073V26.993H245.228V26.073H244.428ZM244.828 26.593H238.917V27.393H244.828V26.593ZM238.517 26.993V32.421H239.317V26.993H238.517ZM238.917 32.821H244.253V32.021H238.917V32.821ZM243.853 32.421V33.318H244.653V32.421H243.853ZM244.253 32.918H238.917V33.718H244.253V32.918ZM238.517 33.318V40.034H239.317V33.318H238.517ZM238.917 40.434H245.058V39.634H238.917V40.434ZM244.658 40.034V41H245.458V40.034H244.658ZM245.058 40.6H237.859V41.4H245.058V40.6ZM249.268 26.142L249.235 25.7434L248.868 25.7744V26.142H249.268ZM255.57 26.832L255.345 27.1629L255.348 27.1648L255.57 26.832ZM254.604 32.996L254.405 32.6492L253.592 33.1168L254.492 33.3799L254.604 32.996ZM257.088 34.56L256.788 34.8238L256.788 34.8238L257.088 34.56ZM256.812 40.103L256.562 39.7906L256.56 39.7929L256.812 40.103ZM249.268 40.954H248.868V41.3189L249.232 41.3523L249.268 40.954ZM251.361 33.456V33.0559L251.352 33.0561L251.361 33.456ZM250.326 33.479L250.317 33.0791L249.926 33.0878V33.479H250.326ZM250.326 40.08H249.926V40.4445L250.289 40.4783L250.326 40.08ZM255.984 39.344L256.245 39.6477L256.245 39.6472L255.984 39.344ZM255.984 34.997L255.701 35.2799L255.708 35.2865L255.984 34.997ZM253.454 33.64L253.551 33.2519L253.543 33.2501L253.454 33.64ZM254.834 27.499L254.614 27.8331L254.62 27.8368L254.834 27.499ZM250.326 26.947L250.297 26.5481L249.926 26.5752V26.947H250.326ZM250.326 32.582H249.926V32.982H250.326V32.582ZM253.523 32.697L253.485 33.0952L253.606 33.1068L253.713 33.0492L253.523 32.697ZM255.087 31.294L254.764 31.0578L254.763 31.0592L255.087 31.294ZM249.302 26.5406C250.379 26.4496 251.487 26.404 252.626 26.404V25.604C251.466 25.604 250.335 25.6504 249.235 25.7434L249.302 26.5406ZM252.626 26.404C253.71 26.404 254.61 26.6632 255.345 27.1629L255.795 26.5011C254.905 25.8968 253.842 25.604 252.626 25.604V26.404ZM255.348 27.1648C256.057 27.6372 256.412 28.3127 256.412 29.247H257.212C257.212 28.0653 256.74 27.1308 255.792 26.4992L255.348 27.1648ZM256.412 29.247C256.412 29.968 256.219 30.6296 255.831 31.2402L256.506 31.6697C256.976 30.9311 257.212 30.1206 257.212 29.247H256.412ZM255.831 31.2402C255.432 31.8676 254.955 32.3328 254.405 32.6492L254.804 33.3428C255.48 32.9539 256.046 32.3917 256.506 31.6697L255.831 31.2402ZM254.492 33.3799C255.419 33.6508 256.18 34.1319 256.788 34.8238L257.389 34.2962C256.677 33.4854 255.783 32.9238 254.716 32.6121L254.492 33.3799ZM256.788 34.8238C257.386 35.5063 257.677 36.2647 257.677 37.113H258.477C258.477 36.0599 258.109 35.1164 257.389 34.2962L256.788 34.8238ZM257.677 37.113C257.677 38.3398 257.29 39.2087 256.562 39.7907L257.062 40.4153C258.021 39.648 258.477 38.5235 258.477 37.113H257.677ZM256.56 39.7929C255.828 40.3892 254.757 40.715 253.293 40.715V41.515C254.865 41.515 256.141 41.1661 257.065 40.4131L256.56 39.7929ZM253.293 40.715C251.784 40.715 250.455 40.6616 249.305 40.5557L249.232 41.3523C250.412 41.461 251.766 41.515 253.293 41.515V40.715ZM249.668 40.954V26.142H248.868V40.954H249.668ZM251.352 33.0561L250.317 33.0791L250.335 33.8789L251.37 33.8559L251.352 33.0561ZM249.926 33.479V40.08H250.726V33.479H249.926ZM250.289 40.4783C250.968 40.5415 252.05 40.572 253.523 40.572V39.772C252.052 39.772 251.003 39.7412 250.363 39.6817L250.289 40.4783ZM253.523 40.572C254.598 40.572 255.516 40.2724 256.245 39.6477L255.724 39.0403C255.165 39.5196 254.442 39.772 253.523 39.772V40.572ZM256.245 39.6472C256.99 39.0066 257.373 38.192 257.373 37.228H256.573C256.573 37.9507 256.298 38.5467 255.723 39.0408L256.245 39.6472ZM257.373 37.228C257.373 36.2527 256.993 35.4065 256.26 34.7075L255.708 35.2865C256.294 35.8448 256.573 36.486 256.573 37.228H257.373ZM256.267 34.7142C255.563 34.0103 254.651 33.527 253.551 33.2519L253.357 34.0281C254.342 34.2743 255.117 34.6957 255.701 35.2798L256.267 34.7142ZM253.543 33.2501C252.966 33.1181 252.235 33.056 251.361 33.056V33.856C252.205 33.856 252.869 33.9166 253.365 34.0299L253.543 33.2501ZM256.177 29.224C256.177 28.3372 255.794 27.6341 255.048 27.1612L254.62 27.8368C255.132 28.1613 255.377 28.6081 255.377 29.224H256.177ZM255.054 27.1649C254.35 26.7013 253.52 26.478 252.58 26.478V27.278C253.389 27.278 254.061 27.4687 254.614 27.8331L255.054 27.1649ZM252.58 26.478C251.7 26.478 250.938 26.5011 250.297 26.5481L250.355 27.3459C250.971 27.3009 251.713 27.278 252.58 27.278V26.478ZM249.926 26.947V32.582H250.726V26.947H249.926ZM250.326 32.982C251.655 32.982 252.706 33.0203 253.485 33.0952L253.562 32.2988C252.746 32.2204 251.666 32.182 250.326 32.182V32.982ZM253.713 33.0492C254.37 32.6955 254.935 32.1852 255.411 31.5288L254.763 31.0592C254.35 31.6295 253.873 32.0545 253.334 32.3448L253.713 33.0492ZM255.41 31.5302C255.918 30.8357 256.177 30.0635 256.177 29.224H255.377C255.377 29.8871 255.176 30.495 254.764 31.0578L255.41 31.5302ZM265.718 41V41.4H266.118V41H265.718ZM264.683 41H264.283V41.4H264.683V41ZM264.683 35.664H265.083V35.5552L265.028 35.4614L264.683 35.664ZM259.048 26.073V25.673H258.35L258.704 26.2756L259.048 26.073ZM260.313 26.073L260.658 25.8705L260.542 25.673H260.313V26.073ZM264.66 33.479L265.018 33.3001L265.012 33.2881L265.005 33.2765L264.66 33.479ZM265.235 34.56L264.953 34.8428L265.358 35.2485L265.599 34.7276L265.235 34.56ZM265.81 33.502L265.465 33.3L265.464 33.3024L265.81 33.502ZM270.157 26.073V25.673H269.928L269.812 25.871L270.157 26.073ZM271.353 26.073L271.699 26.2749L272.051 25.673H271.353V26.073ZM265.718 35.71L265.373 35.5081L265.318 35.6016V35.71H265.718ZM265.718 40.6H264.683V41.4H265.718V40.6ZM265.083 41V35.664H264.283V41H265.083ZM265.028 35.4614L259.393 25.8704L258.704 26.2756L264.339 35.8666L265.028 35.4614ZM259.048 26.473H260.313V25.673H259.048V26.473ZM259.968 26.2755L264.315 33.6815L265.005 33.2765L260.658 25.8705L259.968 26.2755ZM264.303 33.6579C264.472 33.9962 264.606 34.2585 264.704 34.4431C264.753 34.535 264.795 34.6109 264.828 34.6685C264.845 34.6971 264.862 34.7246 264.878 34.7487C264.889 34.7655 264.916 34.8061 264.953 34.8428L265.518 34.2772C265.544 34.3024 265.555 34.3217 265.545 34.3073C265.54 34.3003 265.532 34.2868 265.519 34.2646C265.493 34.2206 265.457 34.1556 265.41 34.0674C265.317 33.8917 265.186 33.6365 265.018 33.3001L264.303 33.6579ZM265.599 34.7276C265.682 34.5468 265.865 34.2088 266.157 33.7016L265.464 33.3024C265.173 33.8072 264.973 34.1745 264.872 34.3924L265.599 34.7276ZM266.156 33.704L270.503 26.275L269.812 25.871L265.465 33.3L266.156 33.704ZM270.157 26.473H271.353V25.673H270.157V26.473ZM271.008 25.8711L265.373 35.5081L266.064 35.9119L271.699 26.2749L271.008 25.8711ZM265.318 35.71V41H266.118V35.71H265.318Z"
							fill="white"
						/>
					</svg>